<svg width="1200" height="900" viewBox="0 0 1200 900" fill="none" xmlns="http://www.w3.org/2000/svg">
  <defs>
    <linearGradient id="bg" x1="120" y1="80" x2="1090" y2="860" gradientUnits="userSpaceOnUse">
      <stop stop-color="#101010"/>
      <stop offset="1" stop-color="#060606"/>
    </linearGradient>
    <linearGradient id="gold" x1="240" y1="130" x2="930" y2="760" gradientUnits="userSpaceOnUse">
      <stop stop-color="#E0B556"/>
      <stop offset="1" stop-color="#A67B27"/>
    </linearGradient>
  </defs>

  <rect width="1200" height="900" rx="40" fill="url(#bg)"/>
  <circle cx="960" cy="150" r="120" fill="#1B8C4F" fill-opacity="0.25"/>
  <circle cx="220" cy="760" r="170" fill="#D4AF37" fill-opacity="0.18"/>

  <rect x="120" y="120" width="960" height="660" rx="30" stroke="#1B8C4F" stroke-opacity="0.6" stroke-width="3"/>

  <rect x="180" y="200" width="840" height="430" rx="24" fill="#0E0E0E" stroke="#D4AF37" stroke-opacity="0.35"/>

  <!-- classroom board -->
  <rect x="230" y="240" width="430" height="230" rx="16" fill="#123323" stroke="#1B8C4F" stroke-width="3"/>
  <path d="M270 290H620" stroke="#D4AF37" stroke-width="8" stroke-linecap="round"/>
  <path d="M270 332H560" stroke="#D4AF37" stroke-width="7" stroke-linecap="round" opacity="0.85"/>
  <path d="M270 370H530" stroke="#D4AF37" stroke-width="7" stroke-linecap="round" opacity="0.7"/>

  <!-- teacher male -->
  <circle cx="760" cy="330" r="48" fill="#F1C6A7"/>
  <path d="M720 350C730 315 790 315 800 350" fill="#1B8C4F"/>
  <rect x="702" y="380" width="116" height="170" rx="28" fill="#1B8C4F"/>
  <rect x="675" y="435" width="36" height="90" rx="16" fill="#1B8C4F"/>
  <rect x="809" y="435" width="36" height="90" rx="16" fill="#1B8C4F"/>
  <rect x="720" y="545" width="35" height="78" rx="14" fill="#CFA340"/>
  <rect x="768" y="545" width="35" height="78" rx="14" fill="#CFA340"/>

  <!-- female student with hijab -->
  <circle cx="930" cy="370" r="40" fill="#F1C6A7"/>
  <path d="M886 370C892 322 968 322 974 370C970 408 946 438 930 448C914 438 890 408 886 370Z" fill="#C48F2C"/>
  <rect x="878" y="438" width="104" height="152" rx="24" fill="#1B8C4F"/>
  <rect x="897" y="585" width="30" height="62" rx="12" fill="#CFA340"/>
  <rect x="940" y="585" width="30" height="62" rx="12" fill="#CFA340"/>

  <!-- male student -->
  <circle cx="585" cy="565" r="32" fill="#F1C6A7"/>
  <rect x="548" y="590" width="74" height="110" rx="20" fill="#1B8C4F"/>
  <rect x="560" y="700" width="24" height="56" rx="10" fill="#CFA340"/>
  <rect x="595" y="700" width="24" height="56" rx="10" fill="#CFA340"/>

  <text x="600" y="840" text-anchor="middle" fill="url(#gold)" font-family="Arial, sans-serif" font-size="52" font-weight="700">MALE & FEMALE QURAN CLASSES</text>
</svg>
