<svg width="320" height="320" viewBox="0 0 320 320" fill="none" xmlns="http://www.w3.org/2000/svg">
  <defs>
    <linearGradient id="goldText" x1="58" y1="232" x2="260" y2="306" gradientUnits="userSpaceOnUse">
      <stop stop-color="#C48F2C"/>
      <stop offset="1" stop-color="#A67B27"/>
    </linearGradient>
  </defs>

  <g transform="translate(160,132) rotate(45) translate(-160,-132)">
    <rect x="66" y="38" width="188" height="188" fill="#1B8C4F"/>
    <rect x="60" y="32" width="200" height="200" stroke="#1B8C4F" stroke-width="4"/>

    <path d="M96 88H224V114H122V134H208V160H122V180H200V206H96V88Z" fill="white"/>
    <path d="M224 88H250V206H224V88Z" fill="white"/>
    <rect x="228" y="172" width="18" height="14" fill="#1B8C4F"/>
    <rect x="228" y="154" width="18" height="14" fill="#1B8C4F"/>
    <rect x="228" y="136" width="18" height="14" fill="#1B8C4F"/>
    <rect x="228" y="118" width="18" height="14" fill="#1B8C4F"/>
  </g>

  <text x="44" y="242" fill="url(#goldText)" font-family="Arial, sans-serif" font-size="41" letter-spacing="1">PEACE</text>
  <text x="140" y="304" fill="url(#goldText)" font-family="Arial, sans-serif" font-size="41" letter-spacing="1">INSTITUTE</text>

  <rect x="150" y="286" width="14" height="14" transform="rotate(45 150 286)" fill="#D4AF37"/>
</svg>
